# xmcd
#
# Track frame offsets:
# 150
# 16525
# 30711
# 45892
# 65309
# 76153
# 92385
# 106979
# 122813
# 136241
# 153303
#
# Disc length: 2313 seconds
#
#
# Revision: 0
# Processed by: cddbd v1.4PL0 Copyright (c) Steve Scherf et al.
# Submitted via: FreeRIP 2.30 
#
DISCID=7009070b
DTITLE=Craig Morgan - Craig Morgan
DYEAR=2000
DGENRE=Country
TTITLE0=Paradise
TTITLE1=I Want Us Back
TTITLE2=Something To Write Home About
TTITLE3=302 South Maple Avenue
TTITLE4=It's Me
TTITLE5=When A Man Can't Get A Woman Off His Mind
TTITLE6=Ev'rything's A Thing
TTITLE7=Walking In My Father's Shoes
TTITLE8=Hush
TTITLE9=Everywhere I Go
TTITLE10=I Wish I Could See Bakersfield (with Merle Haggard)
EXTD=
EXTT0=
EXTT1=
EXTT2=
EXTT3=
EXTT4=
EXTT5=
EXTT6=
EXTT7=
EXTT8=
EXTT9=
EXTT10=
PLAYORDER=
